<svg width="22" height="27" viewBox="0 0 22 27" fill="none" xmlns="http://www.w3.org/2000/svg">
<path d="M7.71391 23.5002L8.06391 23.9668C9.63892 26.0668 12.7889 26.0668 14.3639 23.9668L14.7139 23.5002M2.09388 17.1414L2.21446 17.3899C2.98885 18.9864 4.60728 20.0002 6.38167 20.0002H15.9726C17.4931 20.0002 18.9083 19.2234 19.7247 17.9406C20.8771 16.1298 20.5719 13.7544 18.9991 12.2938L18.9479 12.2462C17.8801 11.2546 17.3544 9.80984 17.5351 8.36381L17.6105 7.76072C18.0371 4.34792 15.376 1.3335 11.9367 1.3335H9.94993C6.51476 1.3335 3.85693 4.34424 4.28301 7.75289L4.37559 8.49355C4.54608 9.85752 4.04785 11.2199 3.03765 12.1521C1.65781 13.4254 1.27445 15.4521 2.09388 17.1414Z" stroke="#494949" stroke-width="1.75" stroke-linecap="round"/>
</svg>
